# xmcd CD database file
#
# Track frame offsets:
#	150
#	23100
#	38855
#	56982
#	99555
#	122829
#	143092
#	163250
#	184300
#	199735
#	214690
#
# Disc length: 3027 seconds
#
# Revision: 1
# Processed by: cddbd v1.4PL0 Copyright (c) Steve Scherf et al.
# Submitted via: CDex 1.50beta10
#
DISCID=a40bd10b
DTITLE=Doo the Doo - It stands to reason
DYEAR=1900
DGENRE=Blues
TTITLE0=One more night
TTITLE1=Checking on my baby
TTITLE2=All i need is your love
TTITLE3=It stands to reason
TTITLE4=Here i am
TTITLE5=I got to go
TTITLE6=If you love me like you say
TTITLE7=Woman's man
TTITLE8=Pretty thing
TTITLE9=Sweet lovin' woman
TTITLE10=More elmore
EXTD=
EXTT0=
EXTT1=
EXTT2=
EXTT3=
EXTT4=
EXTT5=
EXTT6=
EXTT7=
EXTT8=
EXTT9=
EXTT10=
PLAYORDER=
